Coordinates
version=1
nRows=32
nColumns=22
inDegrees=yes

Units are S.I. units (second, meters, Newtons, ...)
If the header above contains a line with 'inDegrees', this indicates whether rotational values are in degrees (yes) or radians (no).

endheader
time	pelvis_tilt	pelvis_list	pelvis_rotation	pelvis_tx	pelvis_ty	pelvis_tz	hip_flexion_r	hip_adduction_r	hip_rotation_r	knee_angle_r	ankle_angle_r	subtalar_angle_r	hip_flexion_l	hip_adduction_l	hip_rotation_l	knee_angle_l	ankle_angle_l	subtalar_angle_l	lumbar_extension	lumbar_bending	lumbar_rotation
      2.29000000	     -2.73461442	     -5.04781859	     -2.87457782	      0.38116170	      0.93548431	     -0.22963970	     -0.57378620	      6.79325751	      7.05702095	    -35.43551062	      8.94257749	      6.68924599	     27.42446094	     -5.94470256	      0.04969278	    -31.06786113	      3.64122771	     -2.09345550	     -5.11701267	      4.16437574	     -2.90395011
      2.30000000	     -2.75232781	     -4.98545428	     -3.21465828	      0.37236025	      0.93464443	     -0.22742282	     -1.17311821	      6.72687446	      7.23554386	    -33.76598643	      9.88872974	      6.00454334	     27.90640762	     -6.11344611	     -0.02487107	    -30.90145547	      2.93951248	     -1.98288491	     -5.34099349	      4.17873141	     -2.38938383
      2.31000000	     -2.78065650	     -4.94086969	     -3.60608652	      0.36333058	      0.93382258	     -0.22504928	     -1.60610231	      6.69645670	      7.42127008	    -32.25392677	     10.88887363	      5.44009288	     28.37673797	     -6.34810256	     -0.17435987	    -30.67393695	      2.21439034	     -1.84686426	     -5.57909986	      4.20929165	     -1.85599345
      2.32000000	     -2.83277005	     -4.90126793	     -4.04711344	      0.35405980	      0.93302605	     -0.22254242	     -1.84206829	      6.69218653	      7.60533945	    -30.94654127	     11.91179136	      5.05225659	     28.83435264	     -6.62802530	     -0.36755206	    -30.35529816	      1.43611120	     -1.67275180	     -5.81653787	      4.24019554	     -1.29272510
      2.33000000	     -2.85043720	     -4.88197207	     -4.46734117	      0.34458396	      0.93236070	     -0.22002458	     -1.96770432	      6.72789131	      7.70472463	    -29.81699796	     12.87407804	      4.30256871	     29.21358473	     -6.92314615	     -0.50604356	    -29.92365835	      0.57808864	     -1.51291142	     -6.12011944	      4.29046221	     -0.77690605
      2.34000000	     -2.90621944	     -4.85975032	     -4.91565702	      0.33489511	      0.93172712	     -0.21743650	     -1.88723353	      6.78858040	      7.79126970	    -28.91480708	     13.80796895	      3.74822852	     29.59799267	     -7.24862009	     -0.68255279	    -29.40248706	     -0.34848317	     -1.29374232	     -6.40216724	      4.33395349	     -0.26379170
      2.35000000	     -2.97373056	     -4.83681671	     -5.35502713	      0.32504250	      0.93117498	     -0.21485742	     -1.65190861	      6.87156086	      7.82265269	    -28.21153467	     14.68343605	      3.23670753	     29.95468891	     -7.58153780	     -0.84610824	    -28.78473794	     -1.33968685	     -1.03202284	     -6.68852049	      4.37466783	      0.21159683
      2.36000000	     -3.05452962	     -4.80596465	     -5.76957622	      0.31507384	      0.93070181	     -0.21233229	     -1.28026900	      6.96628610	      7.78604818	    -27.68200935	     15.48952563	      2.76981458	     30.28847655	     -7.90285852	     -0.97515880	    -28.08656333	     -2.38403604	     -0.71415155	     -6.97071906	      4.40617447	      0.63704395
      2.37000000	     -3.13334074	     -4.75368123	     -6.14405496	      0.30503706	      0.93032358	     -0.20991997	     -0.79853635	      7.04999794	      7.66964143	    -27.31595489	     16.22506752	      2.41864491	     30.58466152	     -8.18491154	     -1.04778009	    -27.32833701	     -3.44528220	     -0.34217593	     -7.25886431	      4.41567590	      0.99490009
      2.38000000	     -3.22128458	     -4.67711369	     -6.45527582	      0.29504700	      0.93002813	     -0.20766567	     -0.25474145	      7.11548962	      7.47960681	    -27.01958594	     16.87696409	      2.10555724	     30.86325512	     -8.40790406	     -1.03037939	    -26.55077477	     -4.49603890	      0.09138899	     -7.52233663	      4.40403721	      1.26838344
      2.39000000	     -3.32156763	     -4.60472290	     -6.69865985	      0.28509104	      0.92977089	     -0.20557641	      0.35463771	      7.20153919	      7.25805110	    -26.80712794	     17.46206325	      1.72583715	     31.15091758	     -8.59272870	     -0.87339262	    -25.82335690	     -5.42640866	      0.65976427	     -7.76495466	      4.40918467	      1.43071184
      2.40000000	     -3.38022182	     -4.47754720	     -6.86994390	      0.27530189	      0.92965222	     -0.20369379	      0.95550118	      7.21133652	      6.92768497	    -26.64587617	     17.97414769	      1.50416815	     31.37321428	     -8.66575852	     -0.58776926	    -25.16448283	     -6.25159896	      1.22913674	     -8.02467420	      4.35052416	      1.52941368
      2.41000000	     -3.45223849	     -4.36515764	     -6.97211212	      0.26568585	      0.92957238	     -0.20199076	      1.55665490	      7.24721627	      6.62679003	    -26.47323873	     18.41731887	      1.24741429	     31.62603169	     -8.70117919	     -0.12363016	    -24.67910173	     -6.80253832	      2.05700474	     -8.24238901	      4.32222447	      1.53313265
      2.42000000	     -3.47595574	     -4.21638874	     -7.00473033	      0.25633001	      0.92962917	     -0.20050785	      2.10740274	      7.22203154	      6.25827729	    -26.31012655	     18.79643838	      1.07451968	     31.82448363	     -8.63571727	      0.48518262	    -24.38132653	     -7.09568043	      2.87771863	     -8.47471103	      4.25627114	      1.47489585
      2.43000000	     -3.46425707	     -4.05971970	     -6.99029481	      0.24722459	      0.92980809	     -0.19919037	      2.60759023	      7.18130222	      5.90855869	    -26.14518717	     19.10332193	      0.92703830	     31.99752905	     -8.51169433	      1.21373631	    -24.33761882	     -7.06821231	      3.79873433	     -8.71193449	      4.18457399	      1.35681184
      2.44000000	     -3.41893778	     -3.89927075	     -6.93380340	      0.23841713	      0.93011543	     -0.19803443	      3.04745230	      7.12262129	      5.55391076	    -25.96096436	     19.33950450	      0.80193446	     32.14488824	     -8.33340010	      2.03477484	    -24.57806685	     -6.70475867	      4.75066174	     -8.94423475	      4.11026161	      1.20923209
      2.45000000	     -3.33718357	     -3.73950456	     -6.86563023	      0.22990092	      0.93055331	     -0.19699992	      3.43140708	      7.05477446	      5.23507192	    -25.77623281	     19.52700395	      0.68262469	     32.26216674	     -8.12529514	      2.86235970	    -25.12784686	     -5.97036550	      5.74261104	     -9.17797963	      4.03939464	      1.04548434
      2.46000000	     -3.22813268	     -3.59444377	     -6.79454046	      0.22167046	      0.93112381	     -0.19604304	      3.76866054	      6.99495772	      4.93849669	    -25.59007784	     19.63515114	      0.57740156	     32.35329657	     -7.90963621	      3.65400256	    -25.98373783	     -4.93798730	      6.70419882	     -9.40304891	      3.97716669	      0.88945021
      2.47000000	     -3.10221960	     -3.46911956	     -6.73873976	      0.21371687	      0.93182045	     -0.19515689	      4.07124766	      6.94890490	      4.67976969	    -25.40339038	     19.66764847	      0.48640578	     32.41988069	     -7.70689524	      4.34183993	    -27.12906115	     -3.67117541	      7.60503703	     -9.61110791	      3.93583205	      0.75525518
      2.48000000	     -2.97191865	     -3.37277184	     -6.70993754	      0.20601402	      0.93263047	     -0.19430398	      4.35532006	      6.93025368	      4.46171076	    -25.21955634	     19.61897295	      0.41306936	     32.46035835	     -7.54091835	      4.88871749	    -28.52563611	     -2.24291350	      8.38961743	     -9.79075067	      3.92041454	      0.65911833
      2.49000000	     -2.84535637	     -3.30749858	     -6.72717834	      0.19852824	      0.93353585	     -0.19344169	      4.63859285	      6.94642430	      4.30466054	    -25.05408756	     19.50772034	      0.35308712	     32.47265604	     -7.43749539	      5.24015372	    -30.13670963	     -0.73506199	      9.03378000	     -9.93909017	      3.92870409	      0.60782926
      2.50000000	     -2.73685447	     -3.27214905	     -6.79019329	      0.19123430	      0.93452068	     -0.19257651	      4.93783493	      6.99642125	      4.19862569	    -24.90438818	     19.31263811	      0.30914678	     32.45594459	     -7.40324187	      5.39510560	    -31.90771945	      0.76513805	      9.49635031	    -10.04335898	      3.96240532	      0.60116202
      2.51000000	     -2.65004114	     -3.26594035	     -6.89721761	      0.18411312	      0.93556617	     -0.19169293	      5.25671178	      7.08183374	      4.14666994	    -24.77097748	     19.05036338	      0.27595840	     32.40265799	     -7.44562325	      5.35672247	    -33.79199805	      2.18939736	      9.74517932	    -10.10266591	      4.01727213	      0.62539851
      2.52000000	     -2.58443286	     -3.29756407	     -7.04235624	      0.17715169	      0.93667458	     -0.19080068	      5.57685234	      7.21264833	      4.15407002	    -24.62110897	     18.71011831	      0.27068240	     32.30241398	     -7.57502126	      5.14330999	    -35.74587781	      3.45882701	      9.69682883	    -10.12242463	      4.10546927	      0.67801068
      2.53000000	     -2.54775628	     -3.33741097	     -7.21143174	      0.17032547	      0.93780142	     -0.18993329	      5.92634875	      7.35269047	      4.18161977	    -24.48231000	     18.31669045	      0.26436098	     32.15350826	     -7.75405007	      4.79387382	    -37.72615821	      4.60616776	      9.51054849	    -10.09640315	      4.19447121	      0.73709907
      2.54000000	     -2.54686625	     -3.39553930	     -7.39808656	      0.16362002	      0.93891789	     -0.18909621	      6.30300355	      7.51728869	      4.23605893	    -24.34036370	     17.85988934	      0.24857129	     31.96234057	     -7.98702966	      4.34347056	    -39.70775921	      5.59416009	      9.19461519	    -10.01890257	      4.30065723	      0.79608712
      2.55000000	     -2.58252605	     -3.46893059	     -7.59313999	      0.15702202	      0.93999471	     -0.18829507	      6.70265951	      7.70571074	      4.32062894	    -24.18631598	     17.35511268	      0.21078542	     31.72823311	     -8.26278571	      3.82339615	    -41.66725494	      6.41173485	      8.72946762	     -9.89264935	      4.41960615	      0.83818812
      2.56000000	     -2.65413597	     -3.53066819	     -7.77992350	      0.15051578	      0.94099130	     -0.18758777	      7.14699535	      7.88205975	      4.38635687	    -24.05205195	     16.81336123	      0.08750744	     31.44721830	     -8.52783670	      3.27806608	    -43.57510497	      7.03773581	      8.01690601	     -9.71625937	      4.52659816	      0.85448658
      2.57000000	     -2.72251336	     -3.59761503	     -7.95122481	      0.14415375	      0.94196633	     -0.18697060	      7.54632184	      8.06147676	      4.47417093	    -23.86401550	     16.26644494	     -0.01794966	     31.06689003	     -8.78863034	      2.72897283	    -45.40820994	      7.56798697	      7.29092506	     -9.53488244	      4.63788082	      0.83138826
      2.58000000	     -2.79853785	     -3.66615620	     -8.10166139	      0.13786821	      0.94285425	     -0.18645907	      7.94648109	      8.24319597	      4.57546731	    -23.67815596	     15.72216745	     -0.12309917	     30.61266971	     -9.02781646	      2.20804277	    -47.16326896	      7.99274628	      6.58716705	     -9.34341916	      4.75184565	      0.75789145
      2.59000000	     -2.88835908	     -3.71347964	     -8.21994249	      0.13170454	      0.94363200	     -0.18608379	      8.34657454	      8.39262683	      4.63888128	    -23.47557046	     15.19219980	     -0.27324124	     30.08214557	     -9.20735419	      1.72477199	    -48.80831805	      8.33898250	      5.85608144	     -9.12210473	      4.84556230	      0.64651001
      2.60000000	     -2.98347099	     -3.75714294	     -8.31013845	      0.12561962	      0.94428853	     -0.18582930	      8.74341196	      8.53365367	      4.69929313	    -23.26917857	     14.68872646	     -0.42989327	     29.47371788	     -9.33907463	      1.29601540	    -50.33979458	      8.62860374	      5.20203625	     -8.89064651	      4.93752682	      0.49696625
